<svg height="2em" viewBox="0 0 60 60" width="2em" fill="#ffffff" xmlns="http://www.w3.org/2000/svg"><g id="Page-1" fill="#ffffff" fill-rule="evenodd"><g id="040---Coffee-Shop-Sign"  fill-rule="nonzero"><path id="Shape" d="m57 4h-48v-1c0-1.65685425-1.34314575-3-3-3h-3c-1.65685425 0-3 1.34314575-3 3v54c0 1.6568542 1.34314575 3 3 3h3c1.65685425 0 3-1.3431458 3-3v-46h12v9.266c-7.6763599 5.6226805-10.8679423 15.5431611-7.9100606 24.5870526s11.3947552 15.1611867 20.9100606 15.1611867 17.9521789-6.1172952 20.9100606-15.1611867-.2337007-18.9643721-7.9100606-24.5870526v-9.266h10c1.6568542 0 3-1.34314575 3-3v-1c0-1.65685425-1.3431458-3-3-3zm-50 53c0 .5522847-.44771525 1-1 1h-3c-.55228475 0-1-.4477153-1-1v-54c0-.55228475.44771525-1 1-1h3c.55228475 0 1 .44771525 1 1zm16-46h3v6.512c-1.0352622.4059157-2.0381543.8899783-3 1.448zm17 0v5.839c-3.9217894-1.118646-8.0782106-1.118646-12 0v-5.839zm14 27c0 11.045695-8.954305 20-20 20s-20-8.954305-20-20 8.954305-20 20-20c11.0404407.0126747 19.9873253 8.9595593 20 20zm-9-19.04c-.9618457-.5580217-1.9647378-1.0420843-3-1.448v-6.512h3zm13-10.96c0 .55228475-.4477153 1-1 1h-48v-3h48c.5522847 0 1 .44771525 1 1z"/><path id="Shape" d="m49.816 37.956c-1.0954227-.8138382-2.4802276-1.1348578-3.822-.886.007-.372.007-.725 0-1.043h-.015c0-.065.022-.126.022-.193 0-1.8-1.536-3.411-4.324-4.525-.5130725-.2048976-1.0951024.0449275-1.3.558s.0449275 1.0951024.558 1.3c1.919.766 3.065 1.763 3.065 2.666 0 1.74-4.565 4.167-12 4.167s-12-2.427-12-4.167c0-.974 1.376-2.079 3.591-2.883.5131089-.1924979.7756903-.762122.5888011-1.2773002-.1868891-.5151782-.7536148-.7839579-1.2708011-.6026998-3.166 1.149-4.909 2.841-4.909 4.763 0 .047.013.09.015.136 0 .014-.008.025-.008.039-.072 3 .347 8.578 3.979 12.3 2.391 2.45 5.76 3.692 10.014 3.692s7.623-1.242 10.014-3.692c.5085795-.5251505.9665995-1.0970059 1.368-1.708.292078-.1181501.5930087-.2131104.9-.284.2-.047.413-.093.637-.142 2.081-.45 5.563-1.2 6.035-4.7.2796513-1.2919247-.1546826-2.6346195-1.138-3.518zm-17.816 12.044c-3.694 0-6.582-1.04-8.583-3.089-1.8927877-2.1406012-3.0371328-4.83929-3.26-7.688 2.643 1.817 7.331 2.777 11.843 2.777s9.2-.961 11.846-2.779c-.2243565 2.8495055-1.3696599 5.5486731-3.263 7.69-2.001 2.049-4.889 3.089-8.583 3.089zm16.969-8.794c-.257 1.9-2.022 2.47-4.319 2.975.6395438-1.62383 1.0494926-3.3289205 1.218-5.066.896575-.2514088 1.8572703-.1195984 2.653.364.4386742.4590486.6082103 1.1125951.448 1.727z"/><path id="Shape" d="m26.359 30.766c.485.4.641.562.641.9s-.156.5-.641.9c-.8190938.5446238-1.3251334 1.4509523-1.359 2.434 0 .5522847.4477153 1 1 1s1-.4477153 1-1c0-.337.156-.5.641-.9.8446011-.5215371 1.3587816-1.443351 1.3587816-2.436s-.5141805-1.9144629-1.3587816-2.436c-.485-.4-.641-.562-.641-.9 0-.321.129-.471.64-.9.8186658-.5423699 1.3251487-1.4465907 1.36-2.428 0-.5522847-.4477153-1-1-1s-1 .4477153-1 1c0 .321-.129.471-.64.9-.8451505.52067-1.359875 1.4423386-1.359875 2.435s.5147245 1.91433 1.359875 2.435z"/><path id="Shape" d="m31.359 30.766c.485.4.641.562.641.9s-.156.5-.641.9c-.8190938.5446238-1.3251334 1.4509523-1.359 2.434 0 .5522847.4477153 1 1 1s1-.4477153 1-1c0-.337.156-.5.641-.9.8446011-.5215371 1.3587816-1.443351 1.3587816-2.436s-.5141805-1.9144629-1.3587816-2.436c-.485-.4-.641-.562-.641-.9 0-.321.129-.471.64-.9.8186658-.5423699 1.3251487-1.4465907 1.36-2.428 0-.5522847-.4477153-1-1-1s-1 .4477153-1 1c0 .321-.129.471-.64.9-.8451505.52067-1.359875 1.4423386-1.359875 2.435s.5147245 1.91433 1.359875 2.435z"/><path id="Shape" d="m36.359 30.766c.485.4.641.562.641.9s-.156.5-.641.9c-.8190938.5446238-1.3251334 1.4509523-1.359 2.434 0 .5522847.4477153 1 1 1s1-.4477153 1-1c0-.337.156-.5.641-.9.8446011-.5215371 1.3587816-1.443351 1.3587816-2.436s-.5141805-1.9144629-1.3587816-2.436c-.485-.4-.641-.562-.641-.9 0-.321.129-.471.64-.9.8186658-.5423699 1.3251487-1.4465907 1.36-2.428 0-.5522847-.4477153-1-1-1s-1 .4477153-1 1c0 .321-.129.471-.64.9-.8451505.52067-1.359875 1.4423386-1.359875 2.435s.5147245 1.91433 1.359875 2.435z"/></g></g></svg>
