<svg height="2em" viewBox="0 0 512 512" width="2em" xmlns="http://www.w3.org/2000/svg" fill="#ffffff"><path d="m218.296875 66.578125c4.167969 0 7.542969-3.375 7.542969-7.542969 0-4.167968-3.375-7.542968-7.542969-7.542968h-65.640625c-4.164062 0-7.542969 3.375-7.542969 7.542968 0 4.167969 3.378907 7.542969 7.542969 7.542969h25.277344v21.910156c-15.875.757813-31.324219 4.15625-46.015625 10.132813-3.859375 1.570312-5.714844 5.972656-4.144531 9.832031 1.570312 3.859375 5.972656 5.710937 9.832031 4.144531 80.550781-32.773437 173.8125 24.828125 173.8125 116.042969v20.765625h-251.878907v-20.765625c0-40.671875 19.875-78.964844 53.164063-102.429687 3.40625-2.402344 4.222656-7.105469 1.820313-10.511719-2.398438-3.40625-7.105469-4.21875-10.511719-1.820313-37.296875 26.289063-59.5625 69.191406-59.5625 114.761719v23.914063c-7.273438 4.144531-12.191407 11.96875-12.191407 20.921874v.53125c0 13.273438 10.800782 24.074219 24.074219 24.074219h258.292969c13.273438 0 24.074219-10.796875 24.074219-24.074219v-.53125c0-8.953124-4.917969-16.777343-12.191407-20.921874v-23.914063c0-75.078125-59.273437-136.570313-133.484374-140.144531v-21.917969zm105.3125 206.898437v.535157c0 4.953125-4.03125 8.984375-8.984375 8.984375h-258.296875c-4.949219 0-8.980469-4.03125-8.980469-8.984375v-.535157c0-4.953124 4.027344-8.984374 8.980469-8.984374h258.296875c4.953125 0 8.984375 4.03125 8.984375 8.984374zm0 0"/><path d="m46.09375 350.152344h215.71875c4.167969 0 7.546875-3.378906 7.546875-7.542969 0-4.167969-3.378906-7.546875-7.546875-7.546875h-215.71875c-4.167969 0-7.546875 3.378906-7.546875 7.546875 0 4.164063 3.378906 7.542969 7.546875 7.542969zm0 0"/><path d="m256.617188 389.441406c0-4.164062-3.378907-7.542968-7.542969-7.542968h-202.980469c-4.167969 0-7.546875 3.378906-7.546875 7.542968 0 4.167969 3.378906 7.542969 7.546875 7.542969h202.980469c4.164062 0 7.542969-3.375 7.542969-7.542969zm0 0"/><path d="m46.09375 428.734375c-4.167969 0-7.546875 3.375-7.546875 7.542969 0 4.167968 3.378906 7.542968 7.546875 7.542968h150.882812c4.164063 0 7.542969-3.375 7.542969-7.542968 0-4.167969-3.378906-7.542969-7.542969-7.542969zm0 0"/><path d="m227.152344 443.820312h41.367187c4.167969 0 7.542969-3.375 7.542969-7.542968 0-4.167969-3.375-7.542969-7.542969-7.542969h-41.367187c-4.164063 0-7.542969 3.375-7.542969 7.542969 0 4.167968 3.378906 7.542968 7.542969 7.542968zm0 0"/><path d="m494.847656 338.179688c-2.160156-3.570313-6.796875-4.707032-10.359375-2.542969-3.570312 2.164062-4.707031 6.800781-2.542969 10.359375 39.789063 65.695312-7.542968 150.746094-85.007812 150.746094-54.792969 0-99.324219-44.597657-99.324219-99.332032 0-85.988281 102.925781-131.800781 166.625-73.050781 3.070313 2.828125 7.835938 2.625 10.664063-.429687 2.828125-3.070313 2.625-7.835938-.433594-10.664063-28.367188-26.148437-67.3125-35.75-103.515625-27.289063v-265.253906c0-11.429687-9.304687-20.722656-20.730469-20.722656h-134.890625c-4.175781 0-7.542969 3.378906-7.542969 7.542969 0 4.164062 3.367188 7.546875 7.542969 7.546875h134.890625c3.109375 0 5.640625 2.523437 5.640625 5.632812v269.898438c-90.160156 34.789062-99.222656 158.554687-15.359375 206.289062h-319.773437c-3.105469 0-5.640625-2.523437-5.640625-5.632812v-470.554688c0-3.109375 2.535156-5.632812 5.640625-5.632812h164.425781c4.164062 0 7.542969-3.382813 7.542969-7.546875 0-4.164063-3.378907-7.542969-7.542969-7.542969h-164.425781c-11.425781 0-20.730469 9.292969-20.730469 20.722656v470.554688c0 11.429687 9.304688 20.722656 20.730469 20.722656h329.492187c5.179688 0 9.917969-1.910156 13.558594-5.070312 73.34375 22.269531 147.574219-32.980469 147.574219-109.519532 0-20.933594-5.710938-41.414062-16.507813-59.230468zm0 0"/><path d="m396.9375 473.878906c12.480469 0 22.632812-10.152344 22.632812-22.632812v-31.203125h31.203126c12.855468 0 23.214843-10.757813 22.609374-23.714844-.570312-12.085937-10.6875-21.550781-23.03125-21.550781h-30.78125v-30.777344c0-12.347656-9.464843-22.464844-21.554687-23.035156-12.988281-.609375-23.710937 9.769531-23.710937 22.605468v31.207032h-30.777344c-12.6875 0-23.058594 10.007812-23.058594 22.632812 0 12.480469 10.152344 22.632813 22.632812 22.632813h31.203126v30.777343c0 12.6875 10.007812 23.058594 22.632812 23.058594zm-53.839844-68.925781c-4.230468 0-7.730468-3.515625-7.535156-7.917969.1875-3.953125 3.757812-7.167968 7.964844-7.167968h35.429687c5.753907 0 10.4375-4.683594 10.4375-10.4375v-35.855469c0-4.234375 3.519531-7.730469 7.917969-7.535157 3.953125.183594 7.167969 3.757813 7.167969 7.960938v35.429688c0 5.757812 4.683593 10.4375 10.4375 10.4375h35.433593c4.238282 0 7.96875 3.300781 7.96875 7.542968 0 4.160156-3.382812 7.546875-7.542968 7.546875h-35.859375c-5.753907 0-10.433594 4.679688-10.433594 10.433594v35.859375c0 4.230469-3.519531 7.730469-7.921875 7.535156-3.953125-.1875-7.167969-3.757812-7.167969-7.960937v-35.433594c0-5.753906-4.679687-10.4375-10.4375-10.4375zm0 0"/></svg>
